<?xml version="1.0" standalone="no"?>
<!DOCTYPE svg PUBLIC "-//W3C//DTD SVG 20010904//EN"
 "http://www.w3.org/TR/2001/REC-SVG-20010904/DTD/svg10.dtd">
<svg version="1.0" xmlns="http://www.w3.org/2000/svg"
 width="2500.000000pt" height="2500.000000pt" viewBox="0 0 2500.000000 2500.000000"
 preserveAspectRatio="xMidYMid meet">
<metadata>
Created by potrace 1.11, written by Peter Selinger 2001-2013
</metadata>
<g transform="translate(0.000000,2500.000000) scale(0.100000,-0.100000)"
fill="#000000" stroke="none">
<path d="M12338 24995 c-2 -1 -77 -6 -168 -9 -91 -4 -190 -9 -220 -11 -78 -7
-196 -16 -255 -19 -27 -2 -77 -6 -110 -10 -33 -3 -89 -8 -125 -11 -36 -3 -72
-8 -80 -10 -8 -2 -44 -7 -80 -10 -36 -3 -76 -7 -90 -9 -14 -2 -52 -7 -85 -11
-33 -4 -67 -9 -76 -10 -9 -2 -40 -6 -69 -10 -29 -4 -60 -8 -69 -10 -9 -1 -52
-8 -96 -15 -96 -14 -102 -15 -185 -30 -36 -7 -74 -13 -85 -15 -49 -7 -101 -16
-115 -20 -8 -2 -31 -7 -50 -10 -19 -3 -69 -13 -110 -22 -41 -8 -84 -17 -95
-19 -11 -2 -31 -6 -45 -9 -14 -4 -34 -8 -45 -10 -11 -3 -29 -7 -40 -9 -11 -3
-51 -12 -90 -20 -193 -42 -493 -122 -795 -211 -237 -70 -772 -253 -910 -311
-60 -26 -74 -32 -110 -45 -39 -14 -342 -141 -405 -169 -22 -10 -65 -29 -95
-43 -250 -112 -686 -330 -880 -439 -25 -14 -63 -35 -85 -48 -22 -12 -106 -61
-188 -108 -81 -48 -159 -94 -175 -102 -15 -8 -28 -18 -30 -22 -2 -5 -7 -8 -12
-8 -33 0 -830 -538 -995 -673 -5 -4 -46 -35 -90 -68 -44 -33 -89 -68 -100 -77
-11 -10 -65 -53 -120 -97 -461 -365 -937 -810 -1397 -1306 -186 -202 -460
-527 -647 -769 -62 -80 -118 -152 -124 -160 -7 -8 -43 -58 -81 -110 -38 -52
-81 -111 -95 -130 -87 -118 -253 -365 -358 -530 -40 -63 -77 -120 -81 -126 -5
-5 -21 -30 -34 -55 -14 -24 -48 -80 -75 -124 -28 -44 -90 -150 -138 -235 -142
-250 -199 -356 -326 -610 -95 -190 -123 -250 -216 -455 -259 -573 -523 -1309
-673 -1880 -53 -201 -127 -506 -146 -600 -2 -11 -6 -31 -9 -45 -11 -46 -15
-65 -19 -86 -62 -306 -106 -569 -141 -829 -15 -113 -20 -152 -30 -235 -15
-121 -41 -401 -50 -535 -4 -44 -8 -98 -10 -120 -26 -279 -26 -1183 0 -1555 10
-145 16 -217 20 -265 2 -27 7 -79 10 -115 10 -114 38 -368 50 -450 2 -14 6
-43 9 -65 8 -61 35 -247 40 -270 2 -11 7 -42 10 -68 4 -27 9 -57 11 -67 2 -9
6 -33 9 -51 3 -19 8 -45 11 -59 3 -14 12 -61 20 -105 8 -44 17 -91 20 -105 2
-14 9 -48 15 -76 6 -28 13 -63 16 -79 3 -16 14 -65 24 -110 10 -45 21 -92 24
-105 2 -14 18 -81 35 -150 17 -69 33 -134 36 -145 9 -43 77 -294 100 -370 154
-513 221 -708 387 -1135 33 -85 66 -170 74 -187 8 -18 20 -48 28 -65 64 -151
114 -266 147 -336 22 -46 39 -86 39 -88 0 -21 324 -653 435 -849 37 -66 77
-136 88 -155 131 -234 419 -682 616 -958 152 -214 503 -671 566 -738 5 -6 28
-33 50 -60 42 -51 166 -195 175 -204 3 -3 39 -43 80 -90 236 -268 639 -676
921 -931 31 -28 152 -135 183 -162 12 -10 35 -30 51 -45 95 -84 467 -387 550
-448 22 -16 42 -32 45 -35 5 -6 341 -253 380 -279 12 -8 39 -27 59 -41 130
-91 484 -325 552 -364 10 -5 77 -46 150 -90 159 -96 219 -132 239 -142 8 -4
64 -35 125 -68 158 -88 295 -160 500 -263 165 -82 218 -107 390 -187 78 -36
425 -185 431 -185 2 0 23 -9 47 -19 39 -18 74 -32 244 -97 120 -45 166 -62
288 -105 186 -65 406 -136 555 -180 74 -21 164 -48 200 -59 63 -18 369 -99
400 -105 8 -2 42 -10 75 -19 50 -13 235 -54 317 -70 276 -55 339 -68 368 -72
19 -3 42 -7 50 -9 8 -3 33 -7 55 -10 22 -3 63 -10 90 -15 28 -5 70 -12 95 -15
53 -7 95 -14 130 -20 23 -4 56 -8 155 -21 22 -2 51 -7 65 -9 14 -2 53 -7 87
-10 34 -3 70 -8 81 -10 10 -2 55 -6 98 -10 43 -4 89 -8 101 -10 12 -2 61 -6
110 -10 48 -4 104 -9 123 -10 19 -2 80 -7 135 -10 55 -4 125 -8 155 -10 332
-23 1063 -23 1445 0 358 21 503 32 555 40 14 2 65 6 113 10 48 3 97 8 107 10
10 2 47 6 82 10 35 3 77 8 93 11 37 5 95 12 160 19 28 3 61 7 75 10 14 2 45 7
70 10 25 3 83 12 130 20 47 7 105 16 130 20 153 20 643 117 910 181 1586 377
3002 1034 4239 1966 46 35 95 72 110 83 119 89 474 385 605 504 21 20 73 67
115 106 94 85 513 504 601 601 130 142 315 352 375 429 22 27 48 59 58 70 44
48 323 413 428 560 158 220 367 538 489 745 5 8 32 52 60 98 27 46 50 85 50
87 0 1 24 45 54 97 100 177 396 754 396 772 0 2 21 48 46 103 53 114 82 180
94 208 4 11 17 41 28 66 45 102 194 484 252 649 34 96 71 202 83 235 12 33 20
60 18 60 -1 0 3 14 9 30 75 194 250 834 336 1225 4 19 9 40 10 45 17 74 41
195 79 390 10 52 85 505 90 545 3 25 10 72 15 105 5 33 12 85 15 115 3 30 8
66 10 80 3 14 7 52 10 85 4 33 8 71 10 85 2 14 6 54 10 90 3 36 8 81 10 100 3
19 7 67 10 105 3 39 7 90 9 115 9 88 15 176 22 290 4 63 8 131 9 150 25 314
24 1252 0 1665 -6 102 -16 254 -20 295 -2 25 -7 77 -10 115 -4 39 -8 86 -11
105 -2 19 -6 58 -9 85 -6 49 -31 246 -40 315 -5 31 -15 94 -30 185 -3 17 -9
58 -15 91 -8 50 -64 331 -74 369 -1 6 -8 40 -16 77 -11 54 -17 67 -34 70 -12
2 -2642 3 -5846 2 l-5825 0 -3 -2312 -2 -2312 3431 0 3431 0 -7 -56 c-4 -31
-8 -66 -10 -78 -2 -11 -6 -37 -9 -56 -3 -19 -8 -46 -11 -60 -2 -14 -12 -61
-21 -105 -40 -200 -183 -685 -239 -810 -8 -16 -27 -64 -43 -105 -16 -41 -39
-95 -50 -120 -11 -25 -39 -88 -63 -140 -51 -114 -171 -351 -229 -452 -57 -98
-153 -261 -162 -273 -5 -5 -51 -75 -104 -155 -53 -80 -131 -190 -172 -245 -71
-94 -229 -294 -242 -305 -3 -3 -20 -23 -39 -45 -162 -192 -430 -459 -651 -651
-25 -21 -47 -41 -50 -44 -3 -3 -39 -32 -80 -66 -694 -563 -1497 -972 -2415
-1230 -55 -15 -361 -91 -397 -98 -13 -2 -79 -16 -148 -30 -127 -26 -328 -60
-410 -71 -42 -5 -62 -8 -137 -19 -16 -2 -55 -7 -88 -10 -33 -4 -78 -9 -100
-11 -52 -6 -115 -12 -195 -20 -373 -34 -1020 -39 -1364 -10 -85 7 -180 16
-211 20 -16 2 -52 7 -80 10 -113 12 -309 39 -365 50 -14 3 -61 12 -105 20 -44
8 -89 16 -100 19 -33 7 -168 35 -195 40 -49 8 -277 68 -410 106 -541 156
-1043 367 -1578 662 -162 89 -501 305 -677 432 -27 19 -58 41 -69 48 -31 22
-308 238 -366 287 -524 439 -1009 969 -1375 1501 -44 63 -83 117 -87 118 -4 2
-8 8 -8 12 0 5 -33 60 -73 122 -269 413 -521 916 -711 1416 -91 240 -211 610
-256 792 -34 136 -100 410 -104 435 -3 17 -8 41 -11 55 -15 76 -45 242 -51
285 -3 28 -7 52 -9 55 -2 3 -6 29 -10 59 -4 30 -8 63 -10 73 -2 11 -7 46 -10
79 -4 33 -8 69 -10 80 -2 10 -7 56 -10 100 -4 45 -8 90 -10 100 -2 10 -7 71
-10 136 -4 65 -9 134 -11 153 -2 19 -4 163 -5 320 -1 270 3 389 17 560 3 41 8
99 9 127 2 29 6 76 10 105 9 81 36 290 40 318 20 137 43 267 76 435 52 261 49
248 54 255 2 4 7 20 9 36 10 54 29 128 66 264 100 363 241 762 364 1035 20 44
49 107 63 140 49 109 229 458 302 585 183 317 374 604 590 883 99 128 217 275
235 292 6 6 36 39 66 75 129 151 493 521 639 650 41 36 79 70 85 75 6 6 40 35
76 64 36 30 67 57 70 60 3 4 25 22 50 41 25 19 51 41 59 48 62 60 479 356 681
484 30 19 74 46 97 61 24 15 47 27 52 27 5 0 11 4 13 8 10 24 533 300 768 405
449 200 970 371 1445 473 97 21 103 22 165 35 80 15 91 17 130 23 19 3 44 7
55 10 11 2 43 7 70 10 28 4 64 9 80 12 17 3 41 7 55 9 14 2 52 7 85 10 33 3
67 8 75 10 8 2 53 7 100 10 47 4 92 9 101 10 9 2 70 6 135 10 66 4 144 9 174
11 70 5 579 5 685 0 134 -7 289 -17 315 -21 14 -2 59 -6 100 -10 41 -3 89 -8
105 -10 17 -2 57 -6 90 -10 33 -4 69 -9 80 -11 11 -2 40 -6 65 -10 25 -3 81
-11 125 -19 44 -8 97 -16 119 -20 133 -19 573 -122 726 -170 123 -38 277 -87
290 -92 8 -4 17 -7 20 -8 72 -18 430 -160 595 -235 231 -105 597 -300 750
-400 33 -22 67 -43 75 -46 44 -21 374 -250 490 -341 175 -136 381 -309 494
-416 l30 -28 40 40 c129 124 249 241 566 551 195 190 390 381 436 425 45 44
227 222 404 395 178 173 362 353 410 400 112 108 725 708 974 951 105 103 245
240 311 304 66 64 177 173 248 242 l127 125 -62 58 c-77 70 -317 280 -382 335
-26 22 -57 48 -69 59 -12 10 -42 35 -67 55 -25 20 -47 38 -50 42 -11 12 -210
167 -352 274 -84 63 -157 119 -163 123 -5 4 -79 56 -163 116 -327 230 -713
473 -1067 671 -220 124 -765 396 -922 461 -21 9 -65 29 -98 44 -33 15 -118 51
-190 80 -71 29 -143 58 -160 65 -228 96 -919 334 -1075 370 -8 2 -73 20 -145
40 -277 77 -649 165 -895 211 -14 2 -47 9 -75 14 -27 5 -63 12 -80 15 -56 9
-90 15 -140 25 -27 5 -63 11 -80 14 -16 2 -59 9 -95 15 -36 5 -87 13 -115 16
-48 6 -63 8 -130 19 -16 2 -55 7 -86 11 -31 3 -65 7 -75 9 -18 3 -138 17 -179
21 -11 1 -49 5 -85 9 -36 3 -92 9 -125 11 -33 3 -86 7 -117 10 -128 11 -228
18 -443 31 -76 5 -1052 13 -1057 9z"/>
</g>
</svg>
